<?xml version="1.0" encoding="UTF-8"?>
<svg width="20" height="20" viewBox="0 0 20 20" xmlns="http://www.w3.org/2000/svg">
    <path d="M2 2.5A1.5 1.5 0 0 1 3.5 1h13A1.5 1.5 0 0 1 18 2.5v15a1.5 1.5 0 0 1-1.5 1.5h-13A1.5 1.5 0 0 1 2 17.5v-15Zm2 1.2v9.1l3.3-3.9a1 1 0 0 1 1.5 0l2.2 2.5 1-1.1a1 1 0 0 1 1.5 0l2.5 2.9V3.7H4Zm12 12.6v-.1l-3.2-3.7-1 1.1a1 1 0 0 1-1.5 0L8 11 4 15.8v.5h12Z"/>
    <path d="M13.7 4.7a3 3 0 0 0-3 3c0 2.4 3 5.6 3 5.6s3-3.2 3-5.6a3 3 0 0 0-3-3Zm0 4.2a1.2 1.2 0 1 1 0-2.4 1.2 1.2 0 0 1 0 2.4Z"/>
</svg>
