<svg xmlns="http://www.w3.org/2000/svg" viewBox="0 0 28 28">
    <g fill="none" fill-rule="evenodd">
        <circle cx="14" cy="14" r="14" fill="#35a4b6"/>
        <path fill="#fff" d="M6.2 7.4a2 2 0 0 1 2-2h11.6a2 2 0 0 1 2 2v13.2a2 2 0 0 1-2 2H8.2a2 2 0 0 1-2-2V7.4Zm2.2.2v8.8l3.5-4.1a1 1 0 0 1 1.5 0l2.2 2.6 1.1-1.2a1 1 0 0 1 1.5 0l1.4 1.6V7.6H8.4Zm11.2 12.8v-2.1l-2.1-2.5-1.1 1.2a1 1 0 0 1-1.5 0l-2.2-2.6-4.3 5v1h11.2Z"/>
        <path fill="#fff" fill-rule="nonzero" d="M17.9 7.9a3.2 3.2 0 0 0-3.2 3.2c0 2.5 3.2 5.9 3.2 5.9s3.2-3.4 3.2-5.9a3.2 3.2 0 0 0-3.2-3.2Zm0 4.5a1.3 1.3 0 1 1 0-2.6 1.3 1.3 0 0 1 0 2.6Z"/>
    </g>
</svg>
