<svg xmlns="http://www.w3.org/2000/svg" viewBox="0 0 32 32">
    <g fill="none" fill-rule="nonzero">
        <circle cx="16" cy="16" r="16" fill="#35a4b6"/>
        <path fill="#fff" d="M8.2 9.4q.2-1.8 2-2h11.6a2 2 0 0 1 2 2v13.2a2 2 0 0 1-2 2H10.2a2 2 0 0 1-2-2zm2.2.2v8.8l3.5-4.1a1 1 0 0 1 1.5 0l2.2 2.6 1.1-1.2a1 1 0 0 1 1.5 0l1.4 1.6V9.6zm11.2 12.8v-2.1l-2.1-2.5-1.1 1.2a1 1 0 0 1-1.5 0l-2.2-2.6-4.3 5v1z"/>
        <path fill="#fff" d="M17.5 11q-1.4.1-1.5 1.4c0 1.1 1.5 2.6 1.5 2.6s1.5-1.5 1.5-2.6q-.1-1.3-1.5-1.4m0 2a.5.5 0 1 1 0-1 .5.5 0 0 1 0 1M14.5 18q-1.4.1-1.5 1.4c0 1.1 1.5 2.6 1.5 2.6s1.5-1.5 1.5-2.6q-.1-1.3-1.5-1.4m0 2a.5.5 0 1 1 0-1 .5.5 0 0 1 0 1"/>
    </g>
</svg>